<svg xmlns="http://www.w3.org/2000/svg" width="1000" height="640" viewBox="0 0 1000 640"><g fill="#808C99"><path d="M301 471.748h15.343c2.623 0 5.022.236 7.2.708 2.175.472 4.038 1.207 5.586 2.203 1.546.997 2.753 2.295 3.619 3.896.866 1.6 1.298 3.527 1.298 5.781 0 2.571-.643 4.892-1.927 6.965-1.286 2.072-3.161 3.501-5.626 4.288v.314c3.147.577 5.691 1.889 7.632 3.934 1.94 2.047 2.911 4.853 2.911 8.419 0 2.518-.472 4.721-1.416 6.609s-2.282 3.463-4.013 4.721c-1.731 1.26-3.804 2.203-6.216 2.833-2.413.63-5.063.944-7.946.944h-16.445v-51.615zm14.163 21.952c4.406 0 7.58-.76 9.521-2.282 1.94-1.521 2.911-3.592 2.911-6.216 0-2.99-1.011-5.114-3.029-6.374-2.02-1.258-5.049-1.887-9.088-1.887h-7.946v16.759h7.631zm1.338 24.47c4.458 0 7.919-.826 10.386-2.479 2.465-1.651 3.698-4.209 3.698-7.67 0-3.2-1.208-5.548-3.619-7.042-2.414-1.495-5.901-2.243-10.465-2.243h-8.97v19.435h8.97zM364.181 524.307c-2.832 0-5.417-.499-7.75-1.494-2.334-.996-4.341-2.412-6.019-4.249-1.68-1.836-2.99-4.092-3.935-6.766-.944-2.676-1.416-5.666-1.416-8.971s.472-6.268 1.416-8.892c.944-2.622 2.255-4.838 3.935-6.647 1.678-1.81 3.685-3.2 6.019-4.171 2.333-.97 4.917-1.455 7.75-1.455 2.779 0 5.337.485 7.672 1.455 2.333.971 4.353 2.361 6.059 4.171 1.704 1.81 3.029 4.025 3.973 6.647.944 2.624 1.416 5.587 1.416 8.892s-.472 6.295-1.416 8.971c-.944 2.674-2.269 4.93-3.973 6.766-1.706 1.837-3.726 3.253-6.059 4.249-2.334.995-4.893 1.494-7.672 1.494zm0-5.508c3.777 0 6.779-1.428 9.009-4.287 2.229-2.859 3.344-6.754 3.344-11.685s-1.115-8.773-3.344-11.526c-2.229-2.755-5.232-4.131-9.009-4.131-3.776 0-6.78 1.376-9.008 4.131-2.23 2.753-3.344 6.596-3.344 11.526s1.114 8.825 3.344 11.685c2.228 2.859 5.232 4.287 9.008 4.287zM394.394 482.605h6.531v40.758h-6.531v-40.758zM415.086 482.605h6.531v35.329h18.647v5.429h-25.178v-40.758zM449.469 482.605h25.651v5.193h-19.12v11.803h16.208v4.956h-16.208v13.612h19.906v5.193h-26.437v-40.757zM511.076 523.363l-10.15-16.365h-7.553v16.365h-6.531v-40.758h14.084c2.254 0 4.339.197 6.255.591 1.914.394 3.565 1.063 4.956 2.006s2.479 2.178 3.266 3.698c.787 1.522 1.181 3.384 1.181 5.587 0 3.095-.853 5.625-2.558 7.593-1.705 1.967-3.974 3.344-6.806 4.131l10.858 17.152h-7.002zm-17.703-21.088h6.845c6.767 0 10.15-2.464 10.15-7.395 0-2.622-.879-4.458-2.637-5.508s-4.288-1.574-7.592-1.574h-6.766v14.477zM527.993 482.605h13.927c2.411 0 4.629.21 6.647.629 2.02.421 3.75 1.116 5.193 2.086 1.442.971 2.569 2.243 3.384 3.815.813 1.574 1.22 3.517 1.22 5.822 0 2.203-.407 4.132-1.22 5.784-.814 1.652-1.955 3.003-3.422 4.053-1.47 1.05-3.202 1.835-5.193 2.359-1.995.525-4.198.787-6.609.787h-7.396v15.422h-6.53v-40.757zm13.454 20.616c3.619 0 6.28-.655 7.986-1.968 1.703-1.31 2.557-3.305 2.557-5.979 0-2.78-.879-4.723-2.636-5.824-1.758-1.102-4.444-1.651-8.065-1.651h-6.766v15.422h6.924zM568.749 482.605h6.53v35.329h18.646v5.429h-25.177v-40.758zM623.431 511.875h-15.501l-3.776 11.488h-6.609l14.557-40.758h7.396l14.635 40.758h-6.924l-3.778-11.488zm-1.575-4.877l-1.889-5.824c-.735-2.255-1.416-4.471-2.045-6.647s-1.313-4.394-2.047-6.648h-.314c-.735 2.308-1.416 4.537-2.045 6.687-.629 2.151-1.313 4.354-2.046 6.609l-1.888 5.824h12.274zM647.034 488.034h-12.904v-5.429h32.339v5.429h-12.904v35.329h-6.53v-35.329zM675.753 482.605h25.65v5.193h-19.12v11.803h16.209v4.956h-16.209v13.612h19.907v5.193h-26.438v-40.757z"/></g><path fill="#CD6799" d="M652.261 307.311c-14.708.077-27.491 3.619-38.197 8.856-3.926-7.779-7.854-14.709-8.548-19.791-.771-5.93-1.693-9.551-.771-16.636.926-7.085 5.083-17.173 5.006-17.942-.077-.771-.923-4.39-9.393-4.468-8.474-.076-15.79 1.618-16.635 3.852-.849 2.234-2.465 7.315-3.545 12.552-1.461 7.701-16.94 35.193-25.799 49.596-2.848-5.623-5.313-10.551-5.851-14.479-.771-5.93-1.693-9.549-.771-16.634.926-7.085 5.084-17.173 5.006-17.944-.077-.769-.922-4.388-9.396-4.466-8.471-.077-15.786 1.618-16.635 3.85-.845 2.233-1.771 7.47-3.542 12.552-1.771 5.083-22.332 50.981-27.721 62.841-2.772 6.083-5.16 10.935-6.854 14.247 0 0-.077.23-.308.616-1.462 2.849-2.31 4.391-2.31 4.391v.077c-1.155 2.077-2.387 4.003-3.003 4.003-.462 0-1.31-5.545.154-13.091 3.081-15.943 10.396-40.738 10.319-41.586 0-.461 1.386-4.774-4.774-7.008-6.007-2.233-8.163 1.463-8.703 1.463-.539 0-.924 1.31-.924 1.31s6.7-27.879-12.783-27.879c-12.167 0-28.956 13.325-37.273 25.337-5.237 2.85-16.403 8.933-28.339 15.479-4.544 2.542-9.241 5.084-13.631 7.471l-.924-1.002c-23.565-25.184-67.153-42.973-65.305-76.78.693-12.322 4.929-44.665 83.71-83.94 64.843-31.959 116.439-23.104 125.371-3.466 12.783 28.032-27.646 80.09-94.644 87.638-25.567 2.848-38.967-7.009-42.356-10.706-3.542-3.85-4.081-4.081-5.391-3.311-2.157 1.155-.771 4.621 0 6.624 2.002 5.237 10.243 14.479 24.181 19.021 12.322 4.005 42.279 6.237 78.551-7.778 40.584-15.71 72.311-59.375 62.992-95.956-9.319-37.119-70.925-49.363-129.221-28.646-34.655 12.322-72.235 31.727-99.266 56.987-32.113 30.034-37.196 56.14-35.117 67.076 7.471 38.814 60.992 64.072 82.401 82.787-1.078.616-2.079 1.154-2.926 1.616-10.705 5.313-51.52 26.646-61.685 49.209-11.552 25.568 1.848 43.897 10.704 46.362 27.493 7.622 55.755-6.085 70.926-28.726 15.171-22.643 13.323-52.06 6.315-65.536-.077-.155-.154-.309-.308-.462 2.772-1.617 5.622-3.313 8.395-4.929 5.468-3.235 10.858-6.238 15.479-8.702-2.618 7.161-4.544 15.71-5.468 28.032-1.155 14.478 4.775 33.267 12.553 40.66 3.465 3.235 7.547 3.313 10.166 3.313 9.086 0 13.168-7.548 17.712-16.479 5.545-10.937 10.551-23.644 10.551-23.644s-6.238 34.346 10.704 34.346c6.161 0 12.398-8.009 15.171-12.089v.077s.154-.232.462-.771c.616-1 1.002-1.615 1.002-1.615v-.155c2.464-4.313 8.009-14.093 16.248-30.343 10.627-20.945 20.87-47.13 20.87-47.13s.923 6.392 4.08 17.019c1.849 6.238 5.7 13.093 8.78 19.715-2.465 3.466-4.006 5.392-4.006 5.392l.077.076c-2 2.619-4.158 5.469-6.545 8.241-8.393 10.012-18.405 21.485-19.792 24.797-1.616 3.927-1.232 6.776 1.848 9.088 2.234 1.693 6.238 1.926 10.319 1.693 7.548-.539 12.86-2.387 15.479-3.542 4.084-1.464 8.857-3.696 13.325-7.009 8.238-6.084 13.244-14.786 12.783-26.26-.232-6.315-2.313-12.63-4.852-18.561l2.232-3.233c13.015-19.023 23.102-39.893 23.102-39.893s.926 6.394 4.083 17.02c1.539 5.392 4.697 11.243 7.471 16.943-12.244 9.935-19.792 21.485-22.488 29.033-4.852 14.016-1.078 20.331 6.083 21.792 3.235.693 7.854-.845 11.244-2.31 4.313-1.387 9.396-3.773 14.248-7.315 8.238-6.083 16.17-14.554 15.708-26.03-.229-5.235-1.615-10.396-3.541-15.401 10.396-4.313 23.795-6.701 40.891-4.697 36.659 4.313 43.897 27.185 42.511 36.811-1.384 9.627-9.087 14.863-11.629 16.479-2.542 1.619-3.387 2.157-3.157 3.313.31 1.693 1.541 1.616 3.696 1.31 3.003-.539 19.253-7.778 19.947-25.492 1.154-22.642-20.409-47.363-58.529-47.13zm-282.78 95.338c-12.168 13.244-29.11 18.251-36.426 14.016-7.855-4.544-4.775-24.105 10.166-38.12 9.086-8.548 20.792-16.479 28.571-21.331 1.771-1.079 4.389-2.619 7.547-4.545.539-.307.847-.461.847-.461l1.848-1.155c5.467 20.021.231 37.657-12.553 51.596zm88.562-60.221c-4.235 10.318-13.092 36.733-18.482 35.271-4.621-1.232-7.471-21.256-.924-41.048 3.311-9.934 10.319-21.792 14.401-26.415 6.623-7.393 13.938-9.857 15.71-6.853 2.232 3.928-8.087 32.574-10.705 39.045zm73.081 34.962c-1.771.925-3.465 1.54-4.235 1.077-.539-.306.771-1.538.771-1.538s9.164-9.857 12.783-14.325c2.081-2.619 4.545-5.699 7.161-9.164v1c0 11.783-11.397 19.714-16.48 22.95zm56.374-12.861c-1.311-.926-1.081-4.005 3.309-13.631 1.693-3.774 5.7-10.089 12.555-16.174.768 2.465 1.31 4.854 1.231 7.087-.077 14.864-10.705 20.409-17.095 22.718z"/></svg>